<svg width="38" height="39" viewBox="0 0 38 39" fill="none" xmlns="http://www.w3.org/2000/svg">
<path d="M5.50005 0.398438C2.46246 0.398438 0 2.86089 0 5.89846V30.8986C0 33.9362 2.46246 36.3986 5.50005 36.3986H13.9972C13.9827 36.0136 14.0221 35.6162 14.1227 35.2136L14.5765 33.3986H9.00008V22.8985C9.00008 22.0701 9.67167 21.3985 10.5001 21.3985H23.7064L26.5768 18.5281C26.2318 18.4435 25.8712 18.3985 25.5002 18.3985H10.5001C8.01479 18.3985 6.00006 20.4133 6.00006 22.8985V33.3986H5.50005C4.11932 33.3986 3.00003 32.2794 3.00003 30.8986V5.89846C3.00003 4.51774 4.11932 3.39845 5.50005 3.39845H8.00007V8.89848C8.00007 11.3838 10.0148 13.3985 12.5001 13.3985H21.5002C23.9854 13.3985 26.0002 11.3838 26.0002 8.89848V3.44533C26.7166 3.56383 27.3839 3.90337 27.9041 4.42358L31.9751 8.49468C32.6315 9.15106 33.0003 10.0413 33.0003 10.9695V14.4125C33.1421 14.4033 33.2843 14.3985 33.4263 14.3985H33.4305C34.3045 14.3989 35.1803 14.5733 36.0003 14.9215V10.9695C36.0003 9.24564 35.3155 7.59233 34.0965 6.37335L30.0255 2.30225C28.8065 1.08326 27.1531 0.398438 25.4292 0.398438H5.50005ZM11.0001 8.89848V3.39845H23.0002V8.89848C23.0002 9.7269 22.3286 10.3985 21.5002 10.3985H12.5001C11.6717 10.3985 11.0001 9.7269 11.0001 8.89848ZM33.4307 16.3985H33.4265C32.2573 16.3991 31.0881 16.8453 30.1961 17.7375L18.3912 29.5424C17.7028 30.2306 17.2146 31.093 16.9786 32.0374L16.0631 35.6988C15.6651 37.291 17.1074 38.7334 18.6996 38.3352L22.361 37.4198C23.3054 37.1838 24.1678 36.6956 24.856 36.0072L36.6609 24.2024C38.4464 22.4171 38.4464 19.5227 36.6609 17.7375C35.7689 16.8453 34.5999 16.3991 33.4307 16.3985Z" fill="#4135F3"/>
</svg>
